<?xml version="1.0" encoding="utf-8"?>
<!-- Generator: Adobe Illustrator 19.0.0, SVG Export Plug-In . SVG Version: 6.00 Build 0)  -->
<svg version="1.1" id="Layer_1" xmlns="http://www.w3.org/2000/svg" xmlns:xlink="http://www.w3.org/1999/xlink" x="0px" y="0px"
	 viewBox="122 -121.5 283.5 283.5" style="enable-background:new 122 -121.5 283.5 283.5;" xml:space="preserve">
<style type="text/css">
	.st0{display:none;}
	.st1{display:inline;fill:#FFFFFF;}
	.st2{fill:#3D4B55;}
</style>
<g id="Facebook" class="st0">
	<path class="st1" d="M204.7-20.9h27v-12.2v-12v-2c0-11.5,0.3-29.4,8.7-40.4c8.9-11.7,21-19.6,41.9-19.6c34,0,48.4,4.8,48.4,4.8
		l-6.8,40c0,0-11.2-3.3-21.8-3.3s-19.9,3.8-19.9,14.2v4.2v14v12.2h43l-3,39.1h-40v135.7h-50.6V18.1h-27L204.7-20.9L204.7-20.9
		L204.7-20.9z"/>
</g>
<g id="Twitter" class="st0">
	<path class="st1" d="M392.2-54c-9.2,4.1-19,6.8-29.3,8c10.5-6.3,18.6-16.3,22.5-28.3c-9.9,5.9-20.8,10.1-32.4,12.4
		c-9.3-9.9-22.6-16.1-37.3-16.1c-28.2,0-51.1,22.9-51.1,51.1c0,4,0.5,7.9,1.3,11.6c-42.5-2.1-80.1-22.5-105.3-53.4
		c-4.4,7.5-6.9,16.3-6.9,25.7c0,17.7,9,33.4,22.7,42.5c-8.4-0.3-16.3-2.6-23.1-6.4c0,0.2,0,0.4,0,0.6c0,24.8,17.6,45.4,41,50.1
		c-4.3,1.2-8.8,1.8-13.5,1.8c-3.3,0-6.5-0.3-9.6-0.9c6.5,20.3,25.4,35.1,47.7,35.5c-17.5,13.7-39.5,21.9-63.4,21.9
		c-4.1,0-8.2-0.2-12.2-0.7c22.6,14.5,49.5,23,78.3,23c94,0,145.3-77.8,145.3-145.4c0-2.2-0.1-4.4-0.1-6.6
		C376.7-34.7,385.4-43.7,392.2-54z"/>
</g>
<polygon class="st2" points="204.7,-74.5 322.7,20.3 204.7,115 "/>
</svg>
